<svg width="87" height="78" viewBox="0 0 87 78" fill="none" xmlns="http://www.w3.org/2000/svg">
<g clip-path="url(#clip0_1_45)">
<path d="M62.7793 8.03589C58.9417 4.19857 54.0528 1.58548 48.7306 0.526991C43.4084 -0.531497 37.892 0.0121499 32.8787 2.08919C27.8653 4.16623 23.5803 7.6834 20.5652 12.196C17.5502 16.7087 15.9405 22.0141 15.9398 27.4417V44.9528H18.0996V27.4417C18.0996 20.7363 20.7627 14.3056 25.5031 9.56416C30.2435 4.82274 36.6729 2.15905 43.3768 2.15905C50.0807 2.15905 56.5101 4.82274 61.2505 9.56416C65.9909 14.3056 68.654 20.7363 68.654 27.4417V44.9528H70.8134V27.4417C70.8232 23.8365 70.1181 20.2651 68.7391 16.9341C67.3601 13.6032 65.3344 10.5788 62.7793 8.03589Z" fill="#037B35"/>
<path d="M43.3768 37.8728C43.2958 37.8729 43.2147 37.8769 43.1336 37.8776C42.9917 37.1042 42.865 36.328 42.7536 35.5488C45.3085 35.4184 47.7508 34.4563 49.7085 32.8092C51.6663 31.1621 53.0321 28.9201 53.5982 26.4247L53.8181 25.4424L52.8114 25.4913C50.5421 25.5988 48.3531 26.3643 46.5112 27.6946C44.6693 29.025 43.2542 30.8625 42.4383 32.9833V32.9882L42.4369 32.9921C42.1855 30.4887 42.0863 27.9722 42.1396 25.4567L42.5409 25.4424C45.9387 25.3018 49.1968 24.0515 51.8167 21.8829C54.4367 19.7143 56.274 16.7469 57.0478 13.4347L57.2774 12.4523L56.266 12.4963C53.162 12.6244 50.1676 13.6793 47.6685 15.5252C45.1694 17.371 43.2803 19.9231 42.2446 22.8526C42.2886 22.1521 42.3411 21.452 42.409 20.7529C42.5218 19.574 42.6699 18.3983 42.853 17.2258C43.218 14.8783 43.7178 12.5538 44.3498 10.2637C43.611 12.5282 43.003 14.8334 42.529 17.1677C42.2889 18.3357 42.0854 19.5111 41.9187 20.694C41.7486 21.8756 41.6098 23.0628 41.5114 24.2541C41.3459 26.1902 41.2714 28.1333 41.2878 30.0835C41.2868 30.0776 41.2863 30.0716 41.2852 30.0657V30.0608C40.7512 27.1484 39.3745 24.4568 37.3255 22.3197C35.2766 20.1826 32.6457 18.694 29.7589 18.0384L28.7767 17.8135L28.8256 18.8203C28.9824 22.1192 30.216 25.2757 32.3375 27.8064C34.459 30.337 37.3515 32.1023 40.5718 32.8318L41.3731 33.0126L41.3745 33.0129C41.4624 34.6517 41.6161 36.2868 41.8356 37.9181C39.3373 38.0396 36.8644 38.4775 34.4762 39.2211C31.6091 40.0961 28.9293 41.4956 26.5728 43.3487C31.8134 40.8208 37.5587 39.5138 43.3768 39.5262C49.1947 39.5168 54.9393 40.8236 60.1809 43.3487C57.8255 41.4939 55.1456 40.0935 52.2781 39.2189C49.3963 38.322 46.395 37.8681 43.3768 37.8728ZM46.826 29.3961C48.2451 28.1967 49.9683 27.4136 51.805 27.1334C51.2028 28.8895 50.1328 30.448 48.7104 31.6408C47.288 32.8335 45.5671 33.6154 43.7332 33.9021C44.3307 32.1445 45.4008 30.5854 46.826 29.3961ZM47.9694 17.2369C50.0469 15.5074 52.5839 14.422 55.2692 14.114C54.4576 16.6914 52.9185 18.9793 50.8371 20.7022C48.7558 22.425 46.2209 23.5094 43.5377 23.8248C44.3426 21.2443 45.8828 18.9548 47.9694 17.2369ZM33.5162 26.8206C31.8357 24.8296 30.7697 22.3932 30.4478 19.8075C32.9321 20.5828 35.1417 22.055 36.8141 24.0493C38.4866 26.0435 39.5517 28.476 39.8829 31.0577C37.3955 30.2912 35.1839 28.8194 33.5162 26.8206Z" fill="#037B35"/>
<path d="M43.3768 42.6939C41.0632 42.6916 38.7626 43.0401 36.5533 43.7275C34.3553 44.3983 32.3009 45.4712 30.4944 46.8918C34.512 44.9539 38.9165 43.9519 43.3768 43.9614C47.837 43.9542 52.241 44.956 56.2593 46.8918C54.4535 45.4699 52.3991 44.3963 50.2008 43.7259C47.9915 43.0382 45.6906 42.6903 43.3768 42.6939Z" fill="#037B35"/>
<path d="M0 68.3121L4.53787 55.2908H8.42502L12.8511 68.3121H10.2659L9.35468 65.5963H3.55234L2.60376 68.3121H0ZM8.61069 63.3268L6.47199 56.8906L4.29588 63.3268H8.61069Z" fill="#037B35"/>
<path d="M13.8741 68.3121V55.2908H16.2922V68.3121H13.8741Z" fill="#037B35"/>
<path d="M18.0213 54.9746C18.3131 54.6997 18.6989 54.5466 19.0998 54.5466C19.5008 54.5466 19.8865 54.6997 20.1784 54.9746C20.322 55.107 20.4359 55.2682 20.5129 55.4477C20.5899 55.6272 20.6281 55.821 20.625 56.0162C20.6292 56.209 20.5914 56.4003 20.5143 56.577C20.4372 56.7537 20.3226 56.9114 20.1784 57.0394C20.036 57.1787 19.8674 57.2882 19.6822 57.3616C19.4971 57.4351 19.2992 57.4709 19.1001 57.4671C18.6994 57.4754 18.3116 57.3249 18.0213 57.0486C17.8775 56.9184 17.7633 56.7589 17.6862 56.5808C17.6092 56.4027 17.5712 56.2102 17.5747 56.0162C17.5717 55.821 17.61 55.6273 17.6869 55.4478C17.7639 55.2683 17.8778 55.1071 18.0213 54.9746ZM20.2902 58.4531V68.3121H17.8725V58.4531H20.2902Z" fill="#037B35"/>
<path d="M32.5271 55.291C33.5918 55.2351 34.6382 55.5839 35.4564 56.2675C35.8076 56.5732 36.0872 56.9525 36.2752 57.3785C36.4633 57.8045 36.5552 58.2667 36.5445 58.7323C36.5522 59.3343 36.4013 59.9277 36.1071 60.4529C35.8268 60.9567 35.4114 61.3723 34.9078 61.6528C35.5687 61.9041 36.1365 62.3521 36.5348 62.9365C36.9004 63.4942 37.0914 64.1482 37.0834 64.8151C37.0955 65.2903 37.0016 65.7622 36.8086 66.1965C36.6156 66.6309 36.3284 67.0168 35.9677 67.3263C35.1152 68.021 34.0342 68.3726 32.9363 68.3123H26.5756V55.291H32.5271ZM28.9937 57.5419V60.7971H32.4153C32.6472 60.807 32.8787 60.7701 33.096 60.6886C33.3134 60.6071 33.5121 60.4827 33.6803 60.3227C33.8369 60.1729 33.9607 59.9923 34.0439 59.7922C34.1272 59.5921 34.168 59.3769 34.1638 59.1603C34.1689 58.9456 34.1294 58.7323 34.0477 58.5337C33.9661 58.3352 33.8441 58.1558 33.6895 58.0068C33.5251 57.8504 33.3308 57.7286 33.1184 57.6487C32.9059 57.5688 32.6795 57.5325 32.4528 57.5419H28.9937ZM28.9937 62.8062V66.0614H32.7691C33.24 66.084 33.7009 65.9203 34.052 65.6057C34.2119 65.4545 34.3377 65.2709 34.4211 65.0673C34.5045 64.8636 34.5435 64.6445 34.5356 64.4246C34.5417 64.2059 34.4999 63.9885 34.4132 63.7877C34.3265 63.5868 34.1969 63.4074 34.0336 63.2619C33.6799 62.9512 33.2205 62.7881 32.7502 62.8062L28.9937 62.8062Z" fill="#037B35"/>
<path d="M39.1298 59.7552C39.5725 59.2832 40.1088 58.9087 40.7043 58.6556C41.3 58.4026 41.9418 58.2766 42.5888 58.2856C43.1417 58.2733 43.6909 58.3779 44.2005 58.5927C44.7101 58.8075 45.1686 59.1275 45.5459 59.5319V58.4531H47.9635V68.3121H45.5459V67.2518C45.1646 67.6485 44.7045 67.961 44.1952 68.1692C43.6859 68.3774 43.1388 68.4768 42.5888 68.4609C41.9401 68.4669 41.2975 68.3357 40.703 68.076C40.1085 67.8164 39.5755 67.4341 39.139 66.9541C38.2153 65.984 37.6993 64.6962 37.6975 63.3565C37.6958 62.0169 38.2085 60.7277 39.1298 59.7553V59.7552ZM39.9666 63.3827C39.9605 63.7605 40.0306 64.1355 40.1728 64.4855C40.315 64.8355 40.5263 65.1532 40.7942 65.4196C41.0592 65.6884 41.3752 65.9017 41.7236 66.047C42.072 66.1923 42.4458 66.2667 42.8233 66.2659C43.2008 66.265 43.5743 66.1889 43.922 66.042C44.2697 65.8951 44.5847 65.6804 44.8485 65.4103C45.1196 65.1474 45.3344 64.832 45.4798 64.4835C45.6252 64.1349 45.6983 63.7604 45.6946 63.3827C45.6978 63.0037 45.6245 62.6279 45.4791 62.2779C45.3338 61.9279 45.1193 61.6108 44.8485 61.3456C44.5863 61.0729 44.2718 60.8558 43.9239 60.7072C43.5759 60.5586 43.2016 60.4815 42.8233 60.4807C42.445 60.4798 42.0703 60.5551 41.7217 60.7021C41.3731 60.8492 41.0577 61.0649 40.7942 61.3364C40.5267 61.605 40.3156 61.9244 40.1735 62.2759C40.0314 62.6273 39.961 63.0036 39.9666 63.3827Z" fill="#037B35"/>
<path d="M49.4695 58.4531H51.8872V59.9227C52.1737 59.3988 52.6154 58.9764 53.1516 58.7136C53.6501 58.4708 54.1969 58.3436 54.7514 58.3416C55.0258 58.3429 55.2996 58.3678 55.5697 58.4159V61.0015C55.2096 60.8818 54.833 60.819 54.4535 60.8156C53.8615 60.8412 53.2869 61.0242 52.7891 61.3457C52.1877 61.6993 51.887 62.3473 51.8872 63.2897V68.3122H49.4695L49.4695 58.4531Z" fill="#037B35"/>
<path d="M57.2623 59.7553C57.705 59.2832 58.2413 58.9087 58.8369 58.6556C59.4325 58.4026 60.0744 58.2766 60.7214 58.2856C61.2743 58.2733 61.8235 58.3779 62.3331 58.5927C62.8427 58.8075 63.3012 59.1275 63.6784 59.5319V58.4531H66.0961V68.3121H63.6784V67.2518C63.2971 67.6485 62.8371 67.961 62.3278 68.1692C61.8185 68.3775 61.2714 68.4768 60.7214 68.4609C60.0727 68.4669 59.4301 68.3357 58.8356 68.0761C58.2411 67.8164 57.7081 67.4341 57.2716 66.9541C56.3479 65.984 55.8319 64.6962 55.8301 63.3565C55.8284 62.0169 56.3411 60.7277 57.2623 59.7553L57.2623 59.7553ZM58.0992 63.3827C58.093 63.7605 58.1632 64.1355 58.3054 64.4855C58.4476 64.8355 58.6589 65.1532 58.9267 65.4196C59.1918 65.6884 59.5077 65.9017 59.8561 66.047C60.2045 66.1923 60.5784 66.2667 60.9559 66.2659C61.3333 66.265 61.7068 66.1889 62.0546 66.042C62.4023 65.8951 62.7173 65.6804 62.9811 65.4103C63.2522 65.1474 63.4669 64.832 63.6124 64.4835C63.7578 64.1349 63.8309 63.7604 63.8272 63.3827C63.8304 63.0037 63.7571 62.628 63.6117 62.2779C63.4663 61.9279 63.2519 61.6108 62.9811 61.3457C62.7188 61.0729 62.4044 60.8558 62.0564 60.7072C61.7085 60.5586 61.3342 60.4815 60.9559 60.4807C60.5776 60.4798 60.2029 60.5551 59.8543 60.7021C59.5057 60.8492 59.1902 61.0649 58.9267 61.3364C58.6592 61.605 58.4482 61.9244 58.3061 62.2759C58.1639 62.6273 58.0936 63.0037 58.0992 63.3827Z" fill="#037B35"/>
<path d="M70.113 55.2908V62.8432L74.1489 58.4531H77.0316L72.81 62.9548L77.1433 68.3121H74.3165L71.3779 64.5174L70.113 65.894V68.3121H67.6954V55.2908H70.113Z" fill="#037B35"/>
<path d="M78.1662 59.7552C78.609 59.2832 79.1452 58.9087 79.7408 58.6556C80.3364 58.4026 80.9783 58.2766 81.6253 58.2856C82.1782 58.2733 82.7274 58.3779 83.237 58.5927C83.7466 58.8075 84.2051 59.1275 84.5824 59.5319V58.4531H87V68.3121H84.5824V67.2518C84.2011 67.6485 83.741 67.961 83.2317 68.1692C82.7224 68.3774 82.1752 68.4768 81.6253 68.4609C80.9766 68.4669 80.334 68.3357 79.7395 68.076C79.145 67.8164 78.612 67.4341 78.1755 66.9541C77.2518 65.984 76.7358 64.6962 76.734 63.3565C76.7323 62.0169 77.245 60.7277 78.1662 59.7553L78.1662 59.7552ZM79.0031 63.3827C78.9969 63.7605 79.0671 64.1355 79.2093 64.4855C79.3515 64.8355 79.5628 65.1532 79.8307 65.4196C80.0957 65.6884 80.4117 65.9017 80.7601 66.047C81.1085 66.1923 81.4823 66.2667 81.8598 66.2659C82.2373 66.265 82.6108 66.1889 82.9585 66.042C83.3062 65.8951 83.6212 65.6804 83.885 65.4103C84.1561 65.1474 84.3708 64.832 84.5163 64.4835C84.6617 64.1349 84.7348 63.7604 84.7311 63.3827C84.7343 63.0037 84.661 62.6279 84.5156 62.2779C84.3703 61.9279 84.1558 61.6108 83.885 61.3456C83.6228 61.0729 83.3083 60.8558 82.9603 60.7072C82.6124 60.5586 82.2381 60.4815 81.8598 60.4807C81.4815 60.4798 81.1068 60.5551 80.7582 60.7021C80.4096 60.8492 80.0942 61.0649 79.8307 61.3364C79.5632 61.605 79.3521 61.9244 79.21 62.2759C79.0679 62.6273 78.9975 63.0036 79.0031 63.3827Z" fill="#037B35"/>
<path d="M16.2451 77.1673V73.362H18.2905C18.6171 73.3478 18.9392 73.4425 19.2061 73.6313C19.3214 73.7168 19.414 73.8292 19.4759 73.9588C19.5378 74.0883 19.567 74.2309 19.5612 74.3744C19.3881 74.451 19.243 74.5794 19.1458 74.7418C19.0486 74.9042 19.004 75.0928 19.0181 75.2816C19.0323 75.4703 19.1045 75.6501 19.2249 75.7962C19.3453 75.9423 19.508 76.0475 19.6905 76.0975C19.6956 76.247 19.665 76.3956 19.6014 76.5311C19.5378 76.6665 19.4428 76.7848 19.3245 76.8764C19.0539 77.0788 18.7218 77.1816 18.3842 77.1673L16.2451 77.1673ZM16.9411 74.9845H18.2118C18.6473 74.9845 18.8651 74.817 18.8651 74.482C18.8651 74.1517 18.6545 73.9866 18.2333 73.9867H16.9411L16.9411 74.9845ZM16.9411 76.5426H18.305C18.7503 76.5426 18.9728 76.3703 18.9725 76.0257C18.9725 75.6811 18.7428 75.5088 18.2835 75.5086H16.9411L16.9411 76.5426Z" fill="#037B35"/>
<path d="M20.7671 73.8644C20.9487 73.6805 21.1658 73.5354 21.4051 73.4379C21.6445 73.3404 21.9012 73.2925 22.1596 73.2972C22.548 73.2929 22.9277 73.4124 23.2437 73.6382C23.559 73.8594 23.8033 74.1675 23.9468 74.525L23.2793 74.6973C23.1899 74.4754 23.0346 74.2863 22.8345 74.1553C22.5897 73.9996 22.2988 73.9328 22.0105 73.9661C21.7223 73.9994 21.4543 74.1309 21.2515 74.3384C21.1311 74.4602 21.0363 74.6049 20.9728 74.764C20.9093 74.9231 20.8784 75.0933 20.8819 75.2645C20.8783 75.4356 20.9096 75.6056 20.9737 75.7642C21.0378 75.9228 21.1336 76.0667 21.255 76.1871C21.3718 76.3088 21.5124 76.405 21.668 76.4699C21.8237 76.5347 21.991 76.5668 22.1596 76.564C22.3985 76.5657 22.6325 76.4963 22.8319 76.3646C23.0313 76.2329 23.187 76.0449 23.2793 75.8245L23.9467 75.9968C23.8061 76.3558 23.5628 76.6655 23.2472 76.887C22.9295 77.1119 22.5487 77.23 22.1596 77.2246C21.899 77.2304 21.64 77.182 21.3991 77.0825C21.1582 76.983 20.9406 76.8346 20.76 76.6465C20.3953 76.275 20.1916 75.7747 20.1929 75.2541C20.1942 74.7334 20.4005 74.2341 20.7671 73.8644L20.7671 73.8644Z" fill="#037B35"/>
<path d="M26.3587 77.2245C26.1 77.2301 25.8431 77.182 25.604 77.0832C25.3649 76.9843 25.1489 76.8369 24.9697 76.6503C24.6071 76.2783 24.4048 75.779 24.4061 75.2595C24.4074 74.74 24.6123 74.2418 24.9767 73.8717C25.1554 73.6862 25.3702 73.5395 25.608 73.4407C25.8457 73.3419 26.1013 73.293 26.3587 73.2972C26.8237 73.2921 27.2735 73.4626 27.6183 73.7746C27.9707 74.0767 28.2016 74.4964 28.2682 74.9558C28.3111 75.1397 28.3135 75.3308 28.2752 75.5157H25.1241C25.1558 75.8152 25.3025 76.0907 25.5333 76.2841C25.7648 76.4762 26.0579 76.5782 26.3587 76.5712C26.5744 76.5797 26.7889 76.5358 26.9839 76.4432C27.1788 76.3507 27.3485 76.2123 27.4784 76.0399L28.1318 76.2051C27.9707 76.5195 27.7178 76.7773 27.4067 76.9444C27.088 77.1281 26.7265 77.2247 26.3587 77.2245ZM25.8167 72.7048C25.7341 72.7867 25.6226 72.8326 25.5064 72.8325C25.3901 72.8325 25.2787 72.7864 25.1962 72.7044C25.1138 72.6225 25.0672 72.5112 25.0664 72.395C25.0657 72.2787 25.111 72.1669 25.1923 72.0839C25.2325 72.0418 25.2809 72.0086 25.3346 71.9863C25.3884 71.9641 25.4461 71.9533 25.5043 71.9547C25.5909 71.9553 25.6754 71.9814 25.7473 72.0297C25.8192 72.078 25.8753 72.1464 25.9086 72.2264C25.9419 72.3064 25.9509 72.3944 25.9346 72.4794C25.9182 72.5645 25.8772 72.6429 25.8167 72.7048V72.7048ZM27.5576 74.9701C27.5192 74.6871 27.3787 74.4279 27.1625 74.2413C26.9383 74.046 26.6488 73.9422 26.3516 73.9507C26.0523 73.943 25.7608 74.0465 25.5333 74.2413C25.313 74.4265 25.1675 74.6855 25.1241 74.9701H27.5576ZM27.4463 72.7048C27.3748 72.7783 27.2801 72.8246 27.1783 72.836C27.0764 72.8473 26.9738 72.823 26.8879 72.767C26.8021 72.7111 26.7382 72.6272 26.7074 72.5294C26.6765 72.4317 26.6805 72.3263 26.7187 72.2312C26.7569 72.1361 26.8269 72.0572 26.9168 72.008C27.0067 71.9588 27.1108 71.9423 27.2115 71.9613C27.3122 71.9804 27.4031 72.0338 27.4688 72.1124C27.5345 72.1911 27.5709 72.2901 27.5717 72.3926C27.5732 72.4504 27.5628 72.508 27.5413 72.5617C27.5197 72.6154 27.4874 72.6641 27.4463 72.7048Z" fill="#037B35"/>
<path d="M34.2976 76.5424H34.8431V77.9999H34.1686V77.1671H31.2468V77.9999H30.5723V76.5424C31.0699 76.5378 31.3188 76.1094 31.3189 75.2572V73.3618H34.2975L34.2976 76.5424ZM31.7497 76.5424H33.587V73.9865H32.0295V75.2429C32.049 75.6929 31.9527 76.1403 31.7497 76.5424Z" fill="#037B35"/>
<path d="M35.3315 77.1886V76.564C35.4682 76.5776 35.6062 76.5579 35.7336 76.5065C35.8377 76.4599 35.9199 76.3751 35.9633 76.2696C36.0088 76.1666 36.0402 76.058 36.0566 75.9466C36.0724 75.8132 36.0796 75.6789 36.0781 75.5446V73.3618H39.1144V77.1671H38.3963V74.0296H36.7957V75.5516C36.7985 75.7737 36.7756 75.9953 36.7275 76.2121C36.6843 76.3985 36.609 76.5758 36.5049 76.7362C36.3955 76.8994 36.2374 77.0238 36.053 77.0916C35.8222 77.1752 35.5762 77.2083 35.3315 77.1886Z" fill="#037B35"/>
<path d="M39.7317 77.1671L40.6433 75.7455C40.404 75.6724 40.1933 75.527 40.0401 75.3292C39.8809 75.1243 39.7973 74.8707 39.8034 74.6112C39.8001 74.4462 39.831 74.2822 39.8939 74.1297C39.9569 73.9771 40.0507 73.8391 40.1694 73.7245C40.29 73.605 40.4336 73.5112 40.5915 73.4489C40.7495 73.3865 40.9184 73.3569 41.0881 73.3619H43.141V77.1671H42.445V75.8317H41.3899L40.5284 77.1671H39.7317ZM41.2606 75.2071H42.445V73.9865H41.232C41.0445 73.9767 40.8606 74.0397 40.7185 74.1623C40.6574 74.2168 40.6089 74.2838 40.5761 74.3588C40.5432 74.4337 40.527 74.5149 40.5284 74.5967C40.5253 74.6821 40.5425 74.7671 40.5787 74.8445C40.6149 74.922 40.669 74.9897 40.7365 75.042C40.8869 75.1559 41.0721 75.2142 41.2606 75.2071Z" fill="#037B35"/>
<path d="M47.139 77.1671V74.0151H45.7179V73.3618H49.228V74.0151H47.8571V77.1671H47.139Z" fill="#037B35"/>
<path d="M50.0965 73.8716C50.4407 73.5216 50.9057 73.3165 51.3963 73.2984C51.8868 73.2804 52.3656 73.4508 52.7346 73.7746C53.087 74.0767 53.3179 74.4963 53.3844 74.9557C53.407 75.0596 53.4189 75.1655 53.4201 75.2717C53.4204 75.3539 53.4108 75.4358 53.3915 75.5157H50.2404C50.2721 75.8152 50.4188 76.0907 50.6496 76.2841C50.8811 76.4762 51.1742 76.5782 51.4749 76.5712C51.6906 76.5797 51.9051 76.5358 52.1001 76.4432C52.2951 76.3507 52.4648 76.2123 52.5947 76.0399L53.248 76.2051C53.087 76.5194 52.8341 76.7773 52.5229 76.9444C52.2042 77.1281 51.8428 77.2247 51.4749 77.2245C51.2163 77.2301 50.9593 77.182 50.7202 77.0831C50.4811 76.9843 50.2651 76.8369 50.0859 76.6502C49.7228 76.2784 49.5204 75.7786 49.5224 75.2588C49.5243 74.7389 49.7305 74.2407 50.0965 73.8716H50.0965ZM50.2404 74.9773H52.6739C52.6323 74.6887 52.4869 74.4251 52.2648 74.2361C52.0428 74.047 51.7594 73.9455 51.4679 73.9506C51.1739 73.9449 50.8878 74.0457 50.6622 74.2343C50.4366 74.423 50.2868 74.6869 50.2404 74.9773Z" fill="#037B35"/>
<path d="M54.0157 77.1671V73.3618H57.4968V77.1671H56.7792V74.0296H54.7333V77.1671H54.0157Z" fill="#037B35"/>
<path d="M58.0785 77.1886V76.564C58.2152 76.5776 58.3532 76.5579 58.4806 76.5065C58.5847 76.4599 58.6669 76.3751 58.7103 76.2696C58.7558 76.1666 58.7872 76.058 58.8035 75.9466C58.8194 75.8132 58.8266 75.6789 58.8251 75.5446V73.3618H61.8613V77.1671H61.1433V74.0296H59.5427V75.5516C59.5455 75.7737 59.5226 75.9953 59.4745 76.2121C59.4313 76.3985 59.356 76.5758 59.2519 76.7362C59.1425 76.8994 58.9844 77.0238 58.8 77.0916C58.5692 77.1752 58.3232 77.2083 58.0785 77.1886Z" fill="#037B35"/>
<path d="M66.247 73.3618V77.1671H65.5509V73.6848L63.9714 77.1671H62.6581V73.3618H63.3542V76.7866L64.9046 73.3618H66.247Z" fill="#037B35"/>
<path d="M70.1878 76.4993H70.7549V77.9999H70.0589V77.1671H67.0513V73.3618H67.7548V76.4993H69.4843V73.3618H70.1878V76.4993Z" fill="#037B35"/>
</g>
<defs>
<clipPath id="clip0_1_45">
<rect width="87" height="78" fill="white"/>
</clipPath>
</defs>
</svg>
