<svg width="61" height="25" viewBox="0 0 61 25" fill="none" xmlns="http://www.w3.org/2000/svg">
<path d="M33.3265 12.0801L33.2047 11.4677H33.1438C33.0389 11.5997 32.8934 11.7215 32.7141 11.8365C32.3216 12.0801 31.8716 12.2053 31.3675 12.2053C30.6806 12.2053 30.1325 12.0226 29.7197 11.6538C29.3069 11.285 29.1006 10.8384 29.1006 10.3072C29.1006 9.67108 29.3205 9.16356 29.7637 8.788C30.2036 8.41244 30.843 8.22635 31.6754 8.22635H33.0829V8.10454C33.0829 7.75266 32.9814 7.47183 32.7818 7.25868C32.5821 7.04552 32.3148 6.94063 31.9799 6.94063C31.6618 6.94063 31.4047 7.02183 31.2152 7.18424C31.0224 7.34665 30.9107 7.53274 30.8769 7.73575H29.3475C29.422 7.17409 29.6825 6.69364 30.1325 6.30454C30.5825 5.91206 31.1983 5.71582 31.9833 5.71582C32.7682 5.71582 33.4009 5.9459 33.8881 6.40266C34.3754 6.85943 34.6156 7.42785 34.6156 8.10454V12.0835H33.3265V12.0801ZM33.0829 9.56958V9.38687H31.7972C31.0224 9.38687 30.6333 9.65078 30.6333 10.182C30.6333 10.4256 30.7178 10.6218 30.8904 10.7639C31.063 10.906 31.3032 10.9771 31.6111 10.9771C32.078 10.9771 32.4366 10.8519 32.6938 10.6049C32.9543 10.3545 33.0829 10.0094 33.0829 9.56958Z" fill="white"/>
<path d="M35.5933 12.0805V3.50684H37.1226V6.50796H37.1835C37.2985 6.36247 37.4406 6.23052 37.6132 6.11548C38.0124 5.84481 38.4624 5.71285 38.9598 5.71285C39.7752 5.71285 40.4587 6.01398 41.0102 6.61285C41.5617 7.21172 41.8357 7.9933 41.8357 8.95759C41.8357 9.92187 41.5617 10.7035 41.0102 11.3023C40.4587 11.9012 39.7752 12.2023 38.9598 12.2023C38.4218 12.2023 37.9549 12.0704 37.5624 11.8098C37.3899 11.6948 37.2444 11.5595 37.1226 11.4072H37.0617L36.9399 12.0805H35.5933ZM37.5624 10.311C37.8568 10.6324 38.2391 10.7948 38.7128 10.7948C39.1865 10.7948 39.5688 10.6324 39.8632 10.311C40.1575 9.98954 40.303 9.53616 40.303 8.95759C40.303 8.37902 40.1575 7.92563 39.8632 7.60421C39.5688 7.28278 39.1865 7.12037 38.7128 7.12037C38.2391 7.12037 37.8568 7.28278 37.5624 7.60421C37.2681 7.92563 37.1226 8.37902 37.1226 8.95759C37.1226 9.53616 37.2715 9.98954 37.5624 10.311Z" fill="white"/>
<path d="M42.5739 12.0805V3.50684H44.1032V6.50796H44.1641C44.2791 6.36247 44.4212 6.23052 44.5938 6.11548C44.993 5.84481 45.443 5.71285 45.9404 5.71285C46.7558 5.71285 47.4393 6.01398 47.9908 6.61285C48.5423 7.21172 48.8163 7.9933 48.8163 8.95759C48.8163 9.92187 48.5423 10.7035 47.9908 11.3023C47.4393 11.9012 46.7558 12.2023 45.9404 12.2023C45.4024 12.2023 44.9355 12.0704 44.543 11.8098C44.3705 11.6948 44.225 11.5595 44.1032 11.4072H44.0423L43.9205 12.0805H42.5739ZM44.543 10.311C44.8374 10.6324 45.2197 10.7948 45.6934 10.7948C46.1671 10.7948 46.5494 10.6324 46.8438 10.311C47.1381 9.98954 47.2836 9.53616 47.2836 8.95759C47.2836 8.37902 47.1381 7.92563 46.8438 7.60421C46.5494 7.28278 46.1671 7.12037 45.6934 7.12037C45.2197 7.12037 44.8374 7.28278 44.543 7.60421C44.2487 7.92563 44.1032 8.37902 44.1032 8.95759C44.1032 9.53616 44.252 9.98954 44.543 10.311Z" fill="white"/>
<path d="M53.4107 12.0801L53.2889 11.4677H53.228C53.1231 11.5997 52.9776 11.7215 52.7983 11.8365C52.4058 12.0801 51.9558 12.2053 51.4516 12.2053C50.7648 12.2053 50.2167 12.0226 49.8039 11.6538C49.3911 11.285 49.1847 10.8384 49.1847 10.3072C49.1847 9.67108 49.4047 9.16356 49.8479 8.788C50.2877 8.41244 50.9272 8.22635 51.7595 8.22635H53.1671V8.10454C53.1671 7.75266 53.0656 7.47183 52.8659 7.25868C52.6663 7.04552 52.399 6.94063 52.064 6.94063C51.746 6.94063 51.4889 7.02183 51.2994 7.18424C51.1065 7.34665 50.9949 7.53274 50.961 7.73575H49.4317C49.5062 7.17409 49.7667 6.69364 50.2167 6.30454C50.6667 5.91206 51.2825 5.71582 52.0674 5.71582C52.8524 5.71582 53.4851 5.9459 53.9723 6.40266C54.4595 6.85943 54.6998 7.42785 54.6998 8.10454V12.0835H53.4107V12.0801ZM53.1671 9.56958V9.38687H51.8813C51.1065 9.38687 50.7174 9.65078 50.7174 10.182C50.7174 10.4256 50.802 10.6218 50.9746 10.7639C51.1471 10.906 51.3874 10.9771 51.6953 10.9771C52.1622 10.9771 52.5208 10.8519 52.778 10.6049C53.0385 10.3545 53.1671 10.0094 53.1671 9.56958Z" fill="white"/>
<path d="M29.4086 21.1213V14.8754H30.8161L30.9379 15.4878H30.9988C31.0969 15.3559 31.2187 15.2341 31.3676 15.119C31.6924 14.8754 32.0612 14.7502 32.4706 14.7502C32.9612 14.7502 33.3977 14.8924 33.78 15.1799C33.9525 15.3254 34.0845 15.4709 34.1826 15.6096H34.2435C34.3484 15.4709 34.4973 15.3288 34.6834 15.1799C35.0826 14.8957 35.5495 14.7502 36.0807 14.7502C36.727 14.7502 37.2751 14.9939 37.7285 15.4777C38.1819 15.9615 38.4086 16.557 38.4086 17.2608V21.1179H36.8792V17.386C36.8792 16.9935 36.7845 16.6923 36.5984 16.4792C36.4123 16.266 36.1586 16.1611 35.8405 16.1611C35.4988 16.1611 35.218 16.2762 35.0014 16.5096C34.7849 16.7431 34.6766 17.0341 34.6766 17.386V21.1213H33.1473V17.386C33.1473 16.9935 33.0526 16.6923 32.8665 16.4792C32.677 16.266 32.4266 16.1611 32.1086 16.1611C31.7668 16.1611 31.486 16.2762 31.2695 16.5096C31.0529 16.7431 30.9447 17.0341 30.9447 17.386V21.1213H29.4086Z" fill="white"/>
<path d="M43.4906 19.2843H45.0842C45.0436 19.4399 44.9624 19.6125 44.844 19.8053C44.7256 19.9982 44.5598 20.208 44.3432 20.4414C44.1267 20.6749 43.8323 20.8644 43.4568 21.0166C43.0812 21.1689 42.665 21.2433 42.2083 21.2433C41.2846 21.2433 40.5233 20.9388 39.9244 20.3298C39.3256 19.7208 39.0244 18.9426 39.0244 17.9952C39.0244 17.0478 39.3256 16.2696 39.9244 15.6606C40.5233 15.0516 41.2846 14.7471 42.2083 14.7471C43.0643 14.7471 43.7884 15.0482 44.3805 15.6471C44.9726 16.2459 45.2669 16.9869 45.2669 17.87C45.2669 17.9444 45.2534 18.0899 45.2297 18.3099L45.206 18.4824H40.5538C40.6181 18.9223 40.8042 19.2775 41.1053 19.5482C41.4064 19.8189 41.7752 19.9508 42.2083 19.9508C42.5331 19.9508 42.8105 19.8798 43.0406 19.7377C43.2673 19.5989 43.4196 19.4467 43.4906 19.2843ZM40.5538 17.4471H43.7376C43.6632 17.0309 43.494 16.6926 43.2301 16.432C42.9662 16.1715 42.6244 16.0396 42.2083 16.0396C41.7684 16.0396 41.4064 16.1681 41.1256 16.4253C40.8414 16.679 40.6519 17.0208 40.5538 17.4471Z" fill="white"/>
<path d="M50.5311 21.1216L50.4093 20.4483H50.3484C50.2266 20.6039 50.0778 20.7392 49.9086 20.8509C49.5161 21.1114 49.0526 21.2434 48.5112 21.2434C47.6958 21.2434 47.0124 20.9422 46.4608 20.3434C45.9093 19.7445 45.6353 18.9629 45.6353 17.9986C45.6353 17.0343 45.9093 16.2528 46.4608 15.6539C47.0124 15.055 47.6958 14.7539 48.5112 14.7539C49.0018 14.7539 49.4484 14.8892 49.8578 15.1565C50.0304 15.2716 50.1725 15.4001 50.2875 15.549H50.3484V13.2922H51.8778V21.1216H50.5311ZM47.6045 19.352C47.8988 19.6734 48.2811 19.8358 48.7548 19.8358C49.2285 19.8358 49.6108 19.6734 49.9052 19.352C50.1996 19.0306 50.3451 18.5772 50.3451 17.9986C50.3451 17.4201 50.1996 16.9667 49.9052 16.6452C49.6108 16.3238 49.2285 16.1614 48.7548 16.1614C48.2811 16.1614 47.8988 16.3238 47.6045 16.6452C47.3101 16.9667 47.1646 17.4201 47.1646 17.9986C47.1646 18.5772 47.3135 19.0272 47.6045 19.352Z" fill="white"/>
<path d="M52.9203 21.1226V14.8767H54.4496V21.1226H52.9203Z" fill="white"/>
<path d="M59.3484 21.1219L59.2266 20.5094H59.1657C59.0608 20.6414 58.9153 20.7632 58.736 20.8782C58.3435 21.1219 57.8935 21.247 57.3894 21.247C56.7025 21.247 56.1544 21.0643 55.7416 20.6955C55.3289 20.3267 55.1225 19.8801 55.1225 19.3489C55.1225 18.7128 55.3424 18.2053 55.7856 17.8297C56.2255 17.4542 56.8649 17.2681 57.6973 17.2681H59.1048V17.1463C59.1048 16.7944 59.0033 16.5136 58.8037 16.3004C58.604 16.0873 58.3367 15.9824 58.0018 15.9824C57.6837 15.9824 57.4266 16.0636 57.2371 16.226C57.0443 16.3884 56.9326 16.5745 56.8988 16.7775H55.3695C55.4439 16.2158 55.7044 15.7354 56.1544 15.3463C56.6044 14.9538 57.2202 14.7576 58.0052 14.7576C58.7901 14.7576 59.4228 14.9876 59.9101 15.4444C60.3973 15.9012 60.6375 16.4696 60.6375 17.1463V21.1252H59.3484V21.1219ZM59.1048 18.6113V18.4286H57.8191C57.0443 18.4286 56.6552 18.6925 56.6552 19.2237C56.6552 19.4673 56.7398 19.6636 56.9123 19.8057C57.0849 19.9478 57.3251 20.0188 57.633 20.0188C58.0999 20.0188 58.4586 19.8937 58.7157 19.6467C58.9762 19.3963 59.1048 19.0512 59.1048 18.6113Z" fill="white"/>
<path d="M8.84101 18.3794C8.21845 18.3794 7.71094 18.5892 7.31507 19.0121C6.92259 19.435 6.72635 19.9662 6.72635 20.6057V24.7504H10.7357V20.6057C10.7357 19.8952 10.5632 19.3437 10.2248 18.958C9.88311 18.5723 9.41958 18.3794 8.84101 18.3794Z" fill="white"/>
<path d="M5.10201 16.5959C5.41329 16.8632 5.66028 17.1237 5.83622 17.3741H5.94788C6.14074 17.1237 6.40803 16.8632 6.74976 16.5959C7.47721 16.0782 8.32307 15.8177 9.28736 15.8177C10.4614 15.8177 11.4595 16.2609 12.2817 17.144C13.1073 18.0271 13.5167 19.1064 13.5167 20.382V24.75H24.8716L16.3554 0H8.64111L3.18698 15.8447C3.88736 15.9226 4.52683 16.1695 5.10201 16.5959Z" fill="white"/>
<path d="M3.94492 20.6049C3.94492 19.8943 3.77575 19.3428 3.43402 18.9571C3.14304 18.6289 2.77086 18.4428 2.31071 18.3921L0.125 24.7496H3.94831V20.6049H3.94492Z" fill="white"/>
</svg>
