<svg width="65" height="26" viewBox="0 0 65 26" fill="none" xmlns="http://www.w3.org/2000/svg">
<path d="M33.8294 11.6398L33.7062 11.0204H33.6447C33.5386 11.1539 33.3914 11.277 33.2101 11.3934C32.8131 11.6398 32.358 11.7664 31.8481 11.7664C31.1535 11.7664 30.5991 11.5816 30.1817 11.2086C29.7642 10.8356 29.5555 10.3839 29.5555 9.84668C29.5555 9.20336 29.7779 8.69006 30.2261 8.31023C30.671 7.93039 31.3177 7.7422 32.1595 7.7422H33.5831V7.619C33.5831 7.26312 33.4804 6.9791 33.2785 6.76352C33.0766 6.54794 32.8063 6.44186 32.4675 6.44186C32.1459 6.44186 31.8858 6.52399 31.6942 6.68824C31.4991 6.85249 31.3862 7.0407 31.352 7.24601H29.8053C29.8805 6.67797 30.144 6.19206 30.5991 5.79854C31.0543 5.40159 31.6771 5.20312 32.4709 5.20312C33.2648 5.20312 33.9047 5.43582 34.3975 5.89778C34.8902 6.35974 35.1332 6.93462 35.1332 7.619V11.6432H33.8294V11.6398ZM33.5831 9.1007V8.91592H32.2827C31.4991 8.91592 31.1056 9.18283 31.1056 9.72007C31.1056 9.96645 31.1911 10.1649 31.3657 10.3086C31.5402 10.4524 31.7831 10.5242 32.0945 10.5242C32.5667 10.5242 32.9295 10.3976 33.1895 10.1478C33.453 9.89459 33.5831 9.54555 33.5831 9.1007Z" fill="white"/>
<path d="M36.122 11.6399V2.96875H37.6687V6.004H37.7303C37.8467 5.85685 37.9904 5.7234 38.1649 5.60705C38.5687 5.3333 39.0238 5.19984 39.5268 5.19984C40.3515 5.19984 41.0427 5.50439 41.6005 6.11007C42.1583 6.71575 42.4355 7.50622 42.4355 8.48147C42.4355 9.45671 42.1583 10.2472 41.6005 10.8529C41.0427 11.4585 40.3515 11.7631 39.5268 11.7631C38.9827 11.7631 38.5105 11.6296 38.1136 11.3662C37.9391 11.2498 37.7919 11.1129 37.6687 10.9589H37.6071L37.4839 11.6399H36.122ZM38.1136 9.85024C38.4113 10.1753 38.798 10.3396 39.277 10.3396C39.7561 10.3396 40.1428 10.1753 40.4405 9.85024C40.7382 9.52515 40.8853 9.06661 40.8853 8.48147C40.8853 7.89632 40.7382 7.43778 40.4405 7.1127C40.1428 6.78761 39.7561 6.62336 39.277 6.62336C38.798 6.62336 38.4113 6.78761 38.1136 7.1127C37.8159 7.43778 37.6687 7.89632 37.6687 8.48147C37.6687 9.06661 37.8193 9.52173 38.1136 9.85024Z" fill="white"/>
<path d="M43.1817 11.6399V2.96875H44.7284V6.004H44.79C44.9064 5.85685 45.0501 5.7234 45.2246 5.60705C45.6284 5.3333 46.0835 5.19984 46.5866 5.19984C47.4112 5.19984 48.1025 5.50439 48.6602 6.11007C49.218 6.71575 49.4952 7.50622 49.4952 8.48147C49.4952 9.45671 49.218 10.2472 48.6602 10.8529C48.1025 11.4585 47.4112 11.7631 46.5866 11.7631C46.0425 11.7631 45.5702 11.6296 45.1733 11.3662C44.9988 11.2498 44.8516 11.1129 44.7284 10.9589H44.6668L44.5437 11.6399H43.1817ZM45.1767 9.85024C45.4744 10.1753 45.8611 10.3396 46.3402 10.3396C46.8192 10.3396 47.2059 10.1753 47.5036 9.85024C47.8013 9.52515 47.9485 9.06661 47.9485 8.48147C47.9485 7.89632 47.8013 7.43778 47.5036 7.1127C47.2059 6.78761 46.8192 6.62336 46.3402 6.62336C45.8611 6.62336 45.4744 6.78761 45.1767 7.1127C44.879 7.43778 44.7319 7.89632 44.7319 8.48147C44.7284 9.06661 44.879 9.52173 45.1767 9.85024Z" fill="white"/>
<path d="M54.142 11.6398L54.0188 11.0204H53.9572C53.8511 11.1539 53.704 11.277 53.5226 11.3934C53.1257 11.6398 52.6706 11.7664 52.1607 11.7664C51.466 11.7664 50.9117 11.5816 50.4942 11.2086C50.0767 10.8356 49.868 10.3839 49.868 9.84668C49.868 9.20336 50.0904 8.69006 50.5387 8.31023C50.9836 7.93039 51.6303 7.7422 52.4721 7.7422H53.8956V7.619C53.8956 7.26312 53.793 6.9791 53.5911 6.76352C53.3892 6.54794 53.1188 6.44186 52.7801 6.44186C52.4584 6.44186 52.1983 6.52399 52.0067 6.68824C51.8117 6.85249 51.6987 7.0407 51.6645 7.24601H50.1178C50.1931 6.67797 50.4566 6.19206 50.9117 5.79854C51.3668 5.40159 51.9896 5.20312 52.7835 5.20312C53.5774 5.20312 54.2173 5.43582 54.71 5.89778C55.2028 6.35974 55.4457 6.93462 55.4457 7.619V11.6432H54.142V11.6398ZM53.8956 9.1007V8.91592H52.5953C51.8117 8.91592 51.4181 9.18283 51.4181 9.72007C51.4181 9.96645 51.5037 10.1649 51.6782 10.3086C51.8527 10.4524 52.0957 10.5242 52.4071 10.5242C52.8793 10.5242 53.242 10.3976 53.5021 10.1478C53.7656 9.89459 53.8956 9.54555 53.8956 9.1007Z" fill="white"/>
<path d="M33.878 19.4057H35.3802C35.3255 19.6795 35.2331 19.943 35.1099 20.1996C34.9867 20.4562 34.8156 20.7095 34.6 20.9627C34.3845 21.2159 34.0936 21.4178 33.7274 21.5752C33.3647 21.7326 32.9541 21.8079 32.4955 21.8079C31.5922 21.8079 30.8428 21.5102 30.2576 20.9148C29.669 20.3194 29.3748 19.5563 29.3748 18.6255C29.3748 17.6982 29.669 16.9351 30.2576 16.3362C30.8462 15.7408 31.5922 15.4431 32.4955 15.4431C32.9507 15.4431 33.3613 15.5218 33.7274 15.6758C34.0902 15.8332 34.381 16.0351 34.6 16.2815C34.8156 16.5313 34.9867 16.7777 35.1099 17.0275C35.2331 17.2773 35.3255 17.5271 35.3802 17.7837H33.878C33.6385 17.1438 33.1765 16.8222 32.4955 16.8222C32.0404 16.8222 31.6538 16.9898 31.3424 17.3252C31.031 17.6605 30.8736 18.0951 30.8736 18.6221C30.8736 19.1491 31.031 19.5837 31.3424 19.919C31.6538 20.2543 32.0404 20.422 32.4955 20.422C33.2039 20.4254 33.6624 20.0867 33.878 19.4057Z" fill="white"/>
<path d="M36.5641 16.3362C37.1527 15.7408 37.8987 15.4431 38.802 15.4431C39.7054 15.4431 40.4548 15.7408 41.0434 16.3362C41.632 16.9317 41.9263 17.6947 41.9263 18.6255C41.9263 19.5528 41.632 20.3159 41.0434 20.9148C40.4548 21.5102 39.7089 21.8079 38.802 21.8079C37.8987 21.8079 37.1493 21.5102 36.5641 20.9148C35.9755 20.3194 35.6812 19.5563 35.6812 18.6255C35.6812 17.6982 35.9755 16.9351 36.5641 16.3362ZM37.6489 19.9224C37.9602 20.2578 38.3469 20.4254 38.802 20.4254C39.2572 20.4254 39.6438 20.2578 39.9552 19.9224C40.2666 19.5871 40.424 19.1525 40.424 18.6255C40.424 18.0985 40.2666 17.6639 39.9552 17.3286C39.6438 16.9933 39.2572 16.8256 38.802 16.8256C38.3469 16.8256 37.9602 16.9933 37.6489 17.3286C37.3375 17.6639 37.18 18.0985 37.18 18.6255C37.1835 19.1559 37.3375 19.5871 37.6489 19.9224Z" fill="white"/>
<path d="M47.0902 21.6894L46.9704 21.029H46.9088C46.789 21.183 46.6453 21.313 46.4776 21.4259C46.0944 21.6826 45.6358 21.8092 45.1089 21.8092C44.3081 21.8092 43.6374 21.5149 43.0968 20.9263C42.5561 20.3378 42.2858 19.5712 42.2858 18.6268C42.2858 17.6823 42.5561 16.9158 43.0968 16.3273C43.6374 15.7387 44.3081 15.4444 45.1089 15.4444C45.5879 15.4444 46.0293 15.5779 46.4297 15.8413C46.5974 15.9543 46.7377 16.0809 46.8506 16.2246H46.9122V13.2817H48.4144V21.6894H47.0902ZM44.2192 19.9545C44.5066 20.2693 44.883 20.4301 45.3484 20.4301C45.8138 20.4301 46.1902 20.2727 46.4776 19.9545C46.7651 19.6397 46.9088 19.1948 46.9088 18.6268C46.9088 18.0587 46.7651 17.6173 46.4776 17.2991C46.1902 16.9843 45.8138 16.8234 45.3484 16.8234C44.883 16.8234 44.5066 16.9808 44.2192 17.2991C43.9317 17.6139 43.788 18.0587 43.788 18.6268C43.788 19.1948 43.9317 19.6363 44.2192 19.9545Z" fill="white"/>
<path d="M49.3724 14.602V13.1614H50.9944V14.602H49.3724ZM49.4306 21.6888V15.5636H50.9328V21.6888H49.4306Z" fill="white"/>
<path d="M51.8943 21.6881V15.5629H53.2767L53.3965 16.1617H53.4581C53.5539 16.042 53.6908 15.9222 53.8653 15.8024C54.2349 15.5629 54.6592 15.4431 55.1383 15.4431C55.8363 15.4431 56.4078 15.6826 56.8629 16.1583C57.3146 16.6339 57.5405 17.2567 57.5405 18.0267V21.6881H56.0382V18.1464C56.0382 17.7529 55.9151 17.4347 55.6721 17.1917C55.4291 16.9488 55.1109 16.8256 54.7174 16.8256C54.3239 16.8256 54.0056 16.9488 53.7627 17.1917C53.5197 17.4347 53.3965 17.7529 53.3965 18.1464V21.6881H51.8943Z" fill="white"/>
<path d="M58.3173 21.99H59.8777C59.9085 22.1166 59.9632 22.2432 60.0351 22.363C60.1069 22.4827 60.2438 22.6025 60.4491 22.7188C60.6544 22.8352 60.9042 22.8934 61.1985 22.8934C61.6297 22.8934 61.9787 22.7702 62.2422 22.5204C62.5057 22.2706 62.6391 21.9352 62.6391 21.5109V20.6691H62.5775C62.4817 20.782 62.3449 20.895 62.1703 21.0045C61.8418 21.22 61.4175 21.3295 60.8974 21.3295C60.1035 21.3295 59.4465 21.0558 58.9229 20.5083C58.3994 19.9608 58.1359 19.2524 58.1359 18.3901C58.1359 17.5244 58.3994 16.8195 58.9229 16.2719C59.4465 15.7244 60.1069 15.4507 60.8974 15.4507C61.3936 15.4507 61.835 15.5704 62.2182 15.81C62.3928 15.9229 62.5331 16.0427 62.6391 16.1693H62.7007L62.8205 15.5704H64.1414V21.528C64.1414 22.3356 63.8745 22.9857 63.3441 23.4785C62.8102 23.9713 62.0985 24.2177 61.2019 24.2177C60.7537 24.2177 60.3499 24.1526 59.9906 24.026C59.6313 23.896 59.3507 23.742 59.1488 23.5572C58.9503 23.3724 58.7826 23.174 58.6492 22.9584C58.5157 22.7428 58.4302 22.5546 58.3857 22.3938C58.3412 22.2261 58.3173 22.0926 58.3173 21.99ZM62.2114 17.2198C61.924 16.9153 61.5681 16.7647 61.1438 16.7647C60.7194 16.7647 60.3636 16.9153 60.0761 17.2198C59.7887 17.5244 59.645 17.9111 59.645 18.3833C59.645 18.8555 59.7887 19.2456 60.0761 19.5467C60.3636 19.8513 60.7194 20.0018 61.1438 20.0018C61.5681 20.0018 61.924 19.8513 62.2114 19.5467C62.4988 19.2422 62.6426 18.8555 62.6426 18.3833C62.6426 17.9145 62.4988 17.5244 62.2114 17.2198Z" fill="white"/>
<path d="M3.31296 16.7161C4.63383 15.3781 6.30714 14.7074 8.33977 14.7074C9.36292 14.7074 10.2834 14.882 11.1013 15.2344C11.9191 15.5835 12.5693 16.0386 13.0552 16.5963C13.5411 17.1541 13.9209 17.7119 14.2015 18.2662C14.4787 18.824 14.6806 19.3886 14.8072 19.9635H11.44C10.8994 18.5263 9.86595 17.8077 8.33977 17.8077C7.31661 17.8077 6.45429 18.1841 5.75279 18.9404C5.0513 19.6932 4.70226 20.665 4.70226 21.8524C4.70226 23.0398 5.0513 24.0082 5.75279 24.7645C5.84176 24.8603 5.93073 24.9493 6.02655 25.0314H10.1123H10.6359C10.9849 24.6687 11.2552 24.1964 11.4435 23.6045H14.8106C14.7114 24.0904 14.5608 24.566 14.3624 25.0314H25.2851L16.6722 0H8.87017L3.17608 16.5519L2.9913 17.0925C3.09054 16.9625 3.19662 16.8359 3.31296 16.7161Z" fill="white"/>
<path d="M1.33475 21.8755L0.25 25.0271H1.97807C1.55718 24.0929 1.33817 23.0458 1.33475 21.8755Z" fill="white"/>
</svg>
